<svg width="43" height="43" viewBox="0 0 43 43" fill="none" xmlns="http://www.w3.org/2000/svg">
<g clip-path="url(#clip0_336_1543)">
<path fill-rule="evenodd" clip-rule="evenodd" d="M21.5178 0C9.61901 0 0 9.68992 0 21.6777C0 31.2601 6.16323 39.3715 14.7133 42.2423C15.7822 42.4581 16.1738 41.7759 16.1738 41.202C16.1738 40.6994 16.1386 38.9768 16.1386 37.182C10.1528 38.4743 8.90636 34.5979 8.90636 34.5979C7.94441 32.0855 6.51911 31.4398 6.51911 31.4398C4.55999 30.1119 6.66182 30.1119 6.66182 30.1119C8.83501 30.2555 9.97533 32.337 9.97533 32.337C11.8988 35.6386 14.9982 34.7058 16.2452 34.1314C16.4231 32.7317 16.9935 31.7627 17.5991 31.2244C12.8251 30.7219 7.80215 28.8557 7.80215 20.529C7.80215 18.1602 8.65662 16.2222 10.0106 14.715C9.79695 14.1768 9.04862 11.9512 10.2246 8.97243C10.2246 8.97243 12.0415 8.39808 16.1381 11.1976C17.892 10.7231 19.7008 10.4817 21.5178 10.4796C23.3347 10.4796 25.1867 10.7311 26.897 11.1976C30.9941 8.39808 32.811 8.97243 32.811 8.97243C33.987 11.9512 33.2382 14.1768 33.0246 14.715C34.4142 16.2222 35.2334 18.1602 35.2334 20.529C35.2334 28.8557 30.2105 30.6858 25.4008 31.2244C26.1848 31.9063 26.8613 33.1981 26.8613 35.244C26.8613 38.151 26.8261 40.484 26.8261 41.2015C26.8261 41.7759 27.2181 42.4581 28.2866 42.2428C36.8367 39.371 42.9999 31.2601 42.9999 21.6777C43.0351 9.68992 33.3809 0 21.5178 0Z" fill="black"/>
</g>
<defs>
<clipPath id="clip0_336_1543">
<rect width="43" height="43" fill="white"/>
</clipPath>
</defs>
</svg>
