<svg width="43" height="43" viewBox="0 0 43 43" fill="none" xmlns="http://www.w3.org/2000/svg">
<path d="M36.4013 7.44542C33.6606 6.18788 30.7217 5.26139 27.6488 4.73074C27.5929 4.7205 27.537 4.74609 27.5081 4.79728C27.1302 5.46954 26.7115 6.34656 26.4183 7.03589C23.1132 6.54109 19.8251 6.54109 16.5878 7.03589C16.2946 6.33124 15.8607 5.46954 15.481 4.79728C15.4522 4.7478 15.3963 4.72221 15.3403 4.73074C12.2692 5.25969 9.33021 6.18619 6.58784 7.44542C6.5641 7.45566 6.54375 7.47274 6.53025 7.4949C0.95566 15.8232 -0.571453 23.9468 0.177698 31.9697C0.181087 32.009 0.203121 32.0465 0.23363 32.0704C3.91158 34.7714 7.47431 36.4111 10.9709 37.498C11.0268 37.5151 11.0861 37.4946 11.1217 37.4485C11.9489 36.319 12.6862 35.128 13.3183 33.8756C13.3556 33.8022 13.32 33.7152 13.2438 33.6862C12.0743 33.2426 10.9607 32.7017 9.88952 32.0874C9.80479 32.038 9.798 31.9168 9.87595 31.8588C10.1014 31.6898 10.3268 31.5141 10.5421 31.3366C10.581 31.3042 10.6353 31.2974 10.6811 31.3179C17.7183 34.5308 25.3369 34.5308 32.2911 31.3179C32.3369 31.2957 32.3912 31.3025 32.4318 31.3349C32.6471 31.5124 32.8725 31.6898 33.0996 31.8588C33.1776 31.9168 33.1725 32.038 33.0878 32.0874C32.0166 32.7136 30.903 33.2426 29.7318 33.6845C29.6556 33.7135 29.6217 33.8022 29.659 33.8756C30.3047 35.1263 31.042 36.3173 31.8539 37.4468C31.8878 37.4946 31.9488 37.5151 32.0047 37.498C35.5182 36.4111 39.0809 34.7714 42.7589 32.0704C42.7911 32.0465 42.8115 32.0107 42.8149 31.9714C43.7114 22.6961 41.3131 14.6391 36.4572 7.4966C36.4453 7.47274 36.4251 7.45566 36.4013 7.44542ZM14.3692 27.0846C12.2505 27.0846 10.5048 25.1395 10.5048 22.7507C10.5048 20.3619 12.2167 18.4168 14.3692 18.4168C16.5386 18.4168 18.2675 20.379 18.2336 22.7507C18.2336 25.1395 16.5217 27.0846 14.3692 27.0846ZM28.6573 27.0846C26.5386 27.0846 24.7929 25.1395 24.7929 22.7507C24.7929 20.3619 26.5047 18.4168 28.6573 18.4168C30.8268 18.4168 32.5555 20.379 32.5217 22.7507C32.5217 25.1395 30.8268 27.0846 28.6573 27.0846Z" fill="white"/>
</svg>
