<svg width="508" height="404" viewBox="0 0 508 404" fill="none" xmlns="http://www.w3.org/2000/svg">
<path d="M218.32 126.194L121.428 225.861C118.479 228.895 113.715 228.874 110.791 225.814L44.6758 156.629C41.7647 153.583 41.7762 148.671 44.7017 145.64L139.39 47.5175C153.422 31.6783 195.919 0 253.65 0C311.382 0 353.878 31.6783 367.91 47.5175L463.298 146.365C466.244 149.418 466.232 154.371 463.272 157.408L396.509 225.921C393.577 228.93 388.853 228.927 385.924 225.915L288.981 126.194C259.513 99.3973 229.595 115.029 218.32 126.194Z" fill="#345EA8"/>
<path d="M289.732 163.585C289.732 184.666 273.241 201.755 252.898 201.755C232.556 201.755 216.064 184.666 216.064 163.585C216.064 142.504 232.556 125.415 252.898 125.415C273.241 125.415 289.732 142.504 289.732 163.585Z" fill="#3B8AC3"/>
<path d="M247.36 172.768C250.327 168.068 256.973 168.068 259.94 172.768L325.72 276.945C328.991 282.126 325.404 289 319.43 289H187.871C181.896 289 178.309 282.126 181.58 276.945L247.36 172.768Z" fill="#3B8AC3"/>
<path d="M26.0609 390L22.7094 380.484H9.6078L6.25624 390H0.326553L13.0766 355.594H19.3109L32.0375 390H26.0609ZM21.2562 375.656L17.9984 366.281C17.8734 365.875 17.6937 365.305 17.4594 364.57C17.225 363.82 16.9906 363.062 16.7562 362.297C16.5219 361.516 16.3266 360.859 16.1703 360.328C16.0141 360.969 15.8187 361.688 15.5844 362.484C15.3656 363.266 15.1469 364 14.9281 364.688C14.725 365.375 14.5687 365.906 14.4594 366.281L11.1781 375.656H21.2562ZM55.7937 355.734C58.7469 355.734 61.1844 356.094 63.1062 356.812C65.0437 357.531 66.4812 358.625 67.4187 360.094C68.3719 361.562 68.8484 363.43 68.8484 365.695C68.8484 367.383 68.5359 368.82 67.9109 370.008C67.2859 371.195 66.4656 372.18 65.45 372.961C64.4344 373.742 63.3484 374.367 62.1922 374.836L71.9187 390H65.5672L57.2937 376.266H51.7859V390H46.1609V355.734H55.7937ZM55.4187 360.422H51.7859V371.625H55.6766C58.2859 371.625 60.1766 371.141 61.3484 370.172C62.5359 369.203 63.1297 367.773 63.1297 365.883C63.1297 363.898 62.4969 362.492 61.2312 361.664C59.9812 360.836 58.0437 360.422 55.4187 360.422ZM98.3 390H92.6516V360.516H82.6203V355.734H108.308V360.516H98.3V390ZM123.158 390V355.734H128.783V390H123.158ZM167.211 380.672C167.211 382.703 166.711 384.453 165.711 385.922C164.727 387.391 163.305 388.516 161.445 389.297C159.602 390.078 157.398 390.469 154.836 390.469C153.586 390.469 152.391 390.398 151.25 390.258C150.109 390.117 149.031 389.914 148.016 389.648C147.016 389.367 146.102 389.031 145.273 388.641V383.344C146.664 383.953 148.219 384.508 149.937 385.008C151.656 385.492 153.406 385.734 155.187 385.734C156.641 385.734 157.844 385.547 158.797 385.172C159.766 384.781 160.484 384.234 160.953 383.531C161.422 382.812 161.656 381.977 161.656 381.023C161.656 380.008 161.383 379.148 160.836 378.445C160.289 377.742 159.461 377.102 158.352 376.523C157.258 375.93 155.883 375.297 154.227 374.625C153.102 374.172 152.023 373.656 150.992 373.078C149.977 372.5 149.07 371.82 148.273 371.039C147.477 370.258 146.844 369.336 146.375 368.273C145.922 367.195 145.695 365.93 145.695 364.477C145.695 362.539 146.156 360.883 147.078 359.508C148.016 358.133 149.328 357.078 151.016 356.344C152.719 355.609 154.703 355.242 156.969 355.242C158.766 355.242 160.453 355.43 162.031 355.805C163.625 356.18 165.187 356.711 166.719 357.398L164.937 361.922C163.531 361.344 162.164 360.883 160.836 360.539C159.523 360.195 158.18 360.023 156.805 360.023C155.617 360.023 154.609 360.203 153.781 360.562C152.953 360.922 152.32 361.43 151.883 362.086C151.461 362.727 151.25 363.492 151.25 364.383C151.25 365.383 151.492 366.227 151.977 366.914C152.477 367.586 153.242 368.203 154.273 368.766C155.32 369.328 156.664 369.953 158.305 370.641C160.195 371.422 161.797 372.242 163.109 373.102C164.437 373.961 165.453 374.992 166.156 376.195C166.859 377.383 167.211 378.875 167.211 380.672ZM204.655 390L201.303 380.484H188.202L184.85 390H178.92L191.67 355.594H197.905L210.631 390H204.655ZM199.85 375.656L196.592 366.281C196.467 365.875 196.287 365.305 196.053 364.57C195.819 363.82 195.584 363.062 195.35 362.297C195.116 361.516 194.92 360.859 194.764 360.328C194.608 360.969 194.412 361.688 194.178 362.484C193.959 363.266 193.741 364 193.522 364.688C193.319 365.375 193.162 365.906 193.053 366.281L189.772 375.656H199.85ZM253.348 390H246.434L229.653 362.648H229.442C229.505 363.57 229.559 364.547 229.606 365.578C229.669 366.609 229.716 367.672 229.747 368.766C229.794 369.859 229.833 370.969 229.864 372.094V390H224.755V355.734H231.622L248.38 382.898H248.544C248.512 382.102 248.473 381.188 248.427 380.156C248.38 379.125 248.333 378.062 248.286 376.969C248.255 375.859 248.231 374.789 248.216 373.758V355.734H253.348V390ZM303.978 355.734C308.4 355.734 311.627 356.641 313.658 358.453C315.689 360.266 316.705 362.805 316.705 366.07C316.705 367.555 316.47 368.969 316.002 370.312C315.548 371.641 314.798 372.82 313.752 373.852C312.705 374.867 311.322 375.672 309.603 376.266C307.9 376.859 305.798 377.156 303.298 377.156H299.642V390H294.017V355.734H303.978ZM303.603 360.398H299.642V372.469H302.712C304.478 372.469 305.978 372.266 307.212 371.859C308.447 371.438 309.384 370.773 310.025 369.867C310.666 368.961 310.986 367.766 310.986 366.281C310.986 364.297 310.384 362.82 309.181 361.852C307.994 360.883 306.134 360.398 303.603 360.398ZM352.555 390H333.148V355.734H352.555V360.469H338.773V369.773H351.688V374.484H338.773V385.242H352.555V390ZM388.967 390H369.561V355.734H388.967V360.469H375.186V369.773H388.1V374.484H375.186V385.242H388.967V390ZM415.934 355.734C420.356 355.734 423.583 356.641 425.614 358.453C427.645 360.266 428.661 362.805 428.661 366.07C428.661 367.555 428.427 368.969 427.958 370.312C427.505 371.641 426.755 372.82 425.708 373.852C424.661 374.867 423.278 375.672 421.559 376.266C419.856 376.859 417.755 377.156 415.255 377.156H411.598V390H405.973V355.734H415.934ZM415.559 360.398H411.598V372.469H414.669C416.434 372.469 417.934 372.266 419.169 371.859C420.403 371.438 421.341 370.773 421.981 369.867C422.622 368.961 422.942 367.766 422.942 366.281C422.942 364.297 422.341 362.82 421.138 361.852C419.95 360.883 418.091 360.398 415.559 360.398ZM464.511 390H445.105V355.734H464.511V360.469H450.73V369.773H463.644V374.484H450.73V385.242H464.511V390ZM491.15 355.734C494.103 355.734 496.541 356.094 498.463 356.812C500.4 357.531 501.838 358.625 502.775 360.094C503.728 361.562 504.205 363.43 504.205 365.695C504.205 367.383 503.892 368.82 503.267 370.008C502.642 371.195 501.822 372.18 500.806 372.961C499.791 373.742 498.705 374.367 497.548 374.836L507.275 390H500.923L492.65 376.266H487.142V390H481.517V355.734H491.15ZM490.775 360.422H487.142V371.625H491.033C493.642 371.625 495.533 371.141 496.705 370.172C497.892 369.203 498.486 367.773 498.486 365.883C498.486 363.898 497.853 362.492 496.588 361.664C495.338 360.836 493.4 360.422 490.775 360.422Z" fill="black"/>
</svg>
